<mxfile host="app.diagrams.net" modified="2023-08-30T21:46:07.563Z" agent="Mozilla/5.0 (Macintosh; Intel Mac OS X 10_15_7) AppleWebKit/537.36 (KHTML, like Gecko) Chrome/116.0.0.0 Safari/537.36" etag="OXW_q6MrqjJ2UHLDrDMu" version="21.7.1" type="device">
  <diagram id="R2lEEEUBdFMjLlhIrx00" name="Page-1">
    <mxGraphModel dx="995" dy="547" grid="1" gridSize="10" guides="1" tooltips="1" connect="1" arrows="1" fold="1" page="1" pageScale="1" pageWidth="850" pageHeight="1100" math="0" shadow="0" extFonts="Permanent Marker^https://fonts.googleapis.com/css?family=Permanent+Marker">
      <root>
        <mxCell id="0" />
        <mxCell id="1" parent="0" />
        <mxCell id="o7ToTlVPX7nJttfSDphf-3" style="edgeStyle=orthogonalEdgeStyle;rounded=0;orthogonalLoop=1;jettySize=auto;html=1;exitX=0.5;exitY=1;exitDx=0;exitDy=0;entryX=0;entryY=0.5;entryDx=0;entryDy=0;endArrow=none;endFill=0;" edge="1" parent="1" source="o7ToTlVPX7nJttfSDphf-1" target="o7ToTlVPX7nJttfSDphf-2">
          <mxGeometry relative="1" as="geometry" />
        </mxCell>
        <mxCell id="o7ToTlVPX7nJttfSDphf-8" style="edgeStyle=orthogonalEdgeStyle;rounded=0;orthogonalLoop=1;jettySize=auto;html=1;exitX=0.5;exitY=1;exitDx=0;exitDy=0;entryX=0;entryY=0.5;entryDx=0;entryDy=0;endArrow=none;endFill=0;" edge="1" parent="1" source="o7ToTlVPX7nJttfSDphf-1" target="o7ToTlVPX7nJttfSDphf-4">
          <mxGeometry relative="1" as="geometry" />
        </mxCell>
        <mxCell id="o7ToTlVPX7nJttfSDphf-9" style="edgeStyle=orthogonalEdgeStyle;rounded=0;orthogonalLoop=1;jettySize=auto;html=1;exitX=0.5;exitY=1;exitDx=0;exitDy=0;entryX=0;entryY=0.5;entryDx=0;entryDy=0;endArrow=none;endFill=0;" edge="1" parent="1" source="o7ToTlVPX7nJttfSDphf-1" target="o7ToTlVPX7nJttfSDphf-7">
          <mxGeometry relative="1" as="geometry" />
        </mxCell>
        <mxCell id="o7ToTlVPX7nJttfSDphf-10" style="edgeStyle=orthogonalEdgeStyle;rounded=0;orthogonalLoop=1;jettySize=auto;html=1;exitX=0.5;exitY=1;exitDx=0;exitDy=0;entryX=0;entryY=0.5;entryDx=0;entryDy=0;endArrow=none;endFill=0;" edge="1" parent="1" source="o7ToTlVPX7nJttfSDphf-1" target="o7ToTlVPX7nJttfSDphf-6">
          <mxGeometry relative="1" as="geometry" />
        </mxCell>
        <mxCell id="o7ToTlVPX7nJttfSDphf-11" style="edgeStyle=orthogonalEdgeStyle;rounded=0;orthogonalLoop=1;jettySize=auto;html=1;exitX=0.5;exitY=1;exitDx=0;exitDy=0;entryX=0;entryY=0.5;entryDx=0;entryDy=0;endArrow=none;endFill=0;" edge="1" parent="1" source="o7ToTlVPX7nJttfSDphf-1" target="o7ToTlVPX7nJttfSDphf-5">
          <mxGeometry relative="1" as="geometry" />
        </mxCell>
        <mxCell id="o7ToTlVPX7nJttfSDphf-29" style="edgeStyle=orthogonalEdgeStyle;rounded=0;orthogonalLoop=1;jettySize=auto;html=1;exitX=0.5;exitY=1;exitDx=0;exitDy=0;entryX=0;entryY=0.5;entryDx=0;entryDy=0;endArrow=none;endFill=0;" edge="1" parent="1" source="o7ToTlVPX7nJttfSDphf-1" target="o7ToTlVPX7nJttfSDphf-28">
          <mxGeometry relative="1" as="geometry" />
        </mxCell>
        <mxCell id="o7ToTlVPX7nJttfSDphf-1" value="Athlet" style="rounded=0;whiteSpace=wrap;html=1;" vertex="1" parent="1">
          <mxGeometry x="90" y="80" width="100" height="40" as="geometry" />
        </mxCell>
        <mxCell id="o7ToTlVPX7nJttfSDphf-2" value="id" style="ellipse;whiteSpace=wrap;html=1;" vertex="1" parent="1">
          <mxGeometry x="160" y="150" width="110" height="40" as="geometry" />
        </mxCell>
        <mxCell id="o7ToTlVPX7nJttfSDphf-4" value="vorname" style="ellipse;whiteSpace=wrap;html=1;" vertex="1" parent="1">
          <mxGeometry x="160" y="200" width="110" height="40" as="geometry" />
        </mxCell>
        <mxCell id="o7ToTlVPX7nJttfSDphf-5" value="land" style="ellipse;whiteSpace=wrap;html=1;" vertex="1" parent="1">
          <mxGeometry x="160" y="350" width="110" height="40" as="geometry" />
        </mxCell>
        <mxCell id="o7ToTlVPX7nJttfSDphf-6" value="nachname" style="ellipse;whiteSpace=wrap;html=1;" vertex="1" parent="1">
          <mxGeometry x="160" y="250" width="110" height="40" as="geometry" />
        </mxCell>
        <mxCell id="o7ToTlVPX7nJttfSDphf-7" value="geschlecht" style="ellipse;whiteSpace=wrap;html=1;" vertex="1" parent="1">
          <mxGeometry x="160" y="300" width="110" height="40" as="geometry" />
        </mxCell>
        <mxCell id="o7ToTlVPX7nJttfSDphf-12" style="edgeStyle=orthogonalEdgeStyle;rounded=0;orthogonalLoop=1;jettySize=auto;html=1;exitX=0.5;exitY=1;exitDx=0;exitDy=0;entryX=0;entryY=0.5;entryDx=0;entryDy=0;endArrow=none;endFill=0;" edge="1" parent="1" source="o7ToTlVPX7nJttfSDphf-14" target="o7ToTlVPX7nJttfSDphf-15">
          <mxGeometry relative="1" as="geometry" />
        </mxCell>
        <mxCell id="o7ToTlVPX7nJttfSDphf-13" style="edgeStyle=orthogonalEdgeStyle;rounded=0;orthogonalLoop=1;jettySize=auto;html=1;exitX=0.5;exitY=1;exitDx=0;exitDy=0;entryX=0;entryY=0.5;entryDx=0;entryDy=0;endArrow=none;endFill=0;" edge="1" parent="1" source="o7ToTlVPX7nJttfSDphf-14" target="o7ToTlVPX7nJttfSDphf-16">
          <mxGeometry relative="1" as="geometry" />
        </mxCell>
        <mxCell id="o7ToTlVPX7nJttfSDphf-14" value="Sportart" style="rounded=0;whiteSpace=wrap;html=1;" vertex="1" parent="1">
          <mxGeometry x="550" y="80" width="100" height="40" as="geometry" />
        </mxCell>
        <mxCell id="o7ToTlVPX7nJttfSDphf-15" value="id" style="ellipse;whiteSpace=wrap;html=1;" vertex="1" parent="1">
          <mxGeometry x="620" y="150" width="110" height="40" as="geometry" />
        </mxCell>
        <mxCell id="o7ToTlVPX7nJttfSDphf-16" value="bezeichnung" style="ellipse;whiteSpace=wrap;html=1;" vertex="1" parent="1">
          <mxGeometry x="620" y="200" width="110" height="40" as="geometry" />
        </mxCell>
        <mxCell id="o7ToTlVPX7nJttfSDphf-18" value="n" style="edgeStyle=orthogonalEdgeStyle;rounded=0;orthogonalLoop=1;jettySize=auto;html=1;exitX=1;exitY=0.5;exitDx=0;exitDy=0;entryX=0;entryY=0.5;entryDx=0;entryDy=0;endArrow=none;endFill=0;" edge="1" parent="1" source="o7ToTlVPX7nJttfSDphf-17" target="o7ToTlVPX7nJttfSDphf-14">
          <mxGeometry x="-0.0909" y="10" relative="1" as="geometry">
            <mxPoint as="offset" />
          </mxGeometry>
        </mxCell>
        <mxCell id="o7ToTlVPX7nJttfSDphf-19" value="n" style="edgeStyle=orthogonalEdgeStyle;rounded=0;orthogonalLoop=1;jettySize=auto;html=1;exitX=0;exitY=0.5;exitDx=0;exitDy=0;entryX=1;entryY=0.5;entryDx=0;entryDy=0;endArrow=none;endFill=0;" edge="1" parent="1" source="o7ToTlVPX7nJttfSDphf-17" target="o7ToTlVPX7nJttfSDphf-1">
          <mxGeometry x="-0.0769" y="-10" relative="1" as="geometry">
            <mxPoint as="offset" />
          </mxGeometry>
        </mxCell>
        <mxCell id="o7ToTlVPX7nJttfSDphf-23" style="edgeStyle=orthogonalEdgeStyle;rounded=0;orthogonalLoop=1;jettySize=auto;html=1;exitX=0.5;exitY=1;exitDx=0;exitDy=0;entryX=0;entryY=0.5;entryDx=0;entryDy=0;endArrow=none;endFill=0;" edge="1" parent="1" source="o7ToTlVPX7nJttfSDphf-17" target="o7ToTlVPX7nJttfSDphf-20">
          <mxGeometry relative="1" as="geometry" />
        </mxCell>
        <mxCell id="o7ToTlVPX7nJttfSDphf-25" style="edgeStyle=orthogonalEdgeStyle;rounded=0;orthogonalLoop=1;jettySize=auto;html=1;exitX=0.5;exitY=1;exitDx=0;exitDy=0;entryX=0;entryY=0.5;entryDx=0;entryDy=0;endArrow=none;endFill=0;" edge="1" parent="1" source="o7ToTlVPX7nJttfSDphf-17" target="o7ToTlVPX7nJttfSDphf-21">
          <mxGeometry relative="1" as="geometry" />
        </mxCell>
        <mxCell id="o7ToTlVPX7nJttfSDphf-17" value="nimmt teil an" style="rhombus;whiteSpace=wrap;html=1;" vertex="1" parent="1">
          <mxGeometry x="320" y="70" width="120" height="60" as="geometry" />
        </mxCell>
        <mxCell id="o7ToTlVPX7nJttfSDphf-20" value="ergebnis" style="ellipse;whiteSpace=wrap;html=1;" vertex="1" parent="1">
          <mxGeometry x="400" y="200" width="110" height="40" as="geometry" />
        </mxCell>
        <mxCell id="o7ToTlVPX7nJttfSDphf-21" value="medaille" style="ellipse;whiteSpace=wrap;html=1;" vertex="1" parent="1">
          <mxGeometry x="400" y="250" width="110" height="40" as="geometry" />
        </mxCell>
        <mxCell id="o7ToTlVPX7nJttfSDphf-27" style="edgeStyle=orthogonalEdgeStyle;rounded=0;orthogonalLoop=1;jettySize=auto;html=1;exitX=0;exitY=0.5;exitDx=0;exitDy=0;endArrow=none;endFill=0;" edge="1" parent="1" source="o7ToTlVPX7nJttfSDphf-26">
          <mxGeometry relative="1" as="geometry">
            <mxPoint x="380" y="130" as="targetPoint" />
          </mxGeometry>
        </mxCell>
        <mxCell id="o7ToTlVPX7nJttfSDphf-26" value="id" style="ellipse;whiteSpace=wrap;html=1;" vertex="1" parent="1">
          <mxGeometry x="400" y="150" width="110" height="40" as="geometry" />
        </mxCell>
        <mxCell id="o7ToTlVPX7nJttfSDphf-28" value="geburtsdatum" style="ellipse;whiteSpace=wrap;html=1;" vertex="1" parent="1">
          <mxGeometry x="160" y="400" width="110" height="40" as="geometry" />
        </mxCell>
      </root>
    </mxGraphModel>
  </diagram>
</mxfile>
